<?xml version="1.0" encoding="UTF-8"?>
<svg width="800px" height="800px" viewBox="0 0 800 800" version="1.1" xmlns="http://www.w3.org/2000/svg">
    <g stroke="none" stroke-width="1" fill="none" fill-rule="evenodd">
        <g transform="translate(66, 100)">
            <!-- Money coin -->
            <g transform="translate(410, 230)">
                <circle fill="#FFF1C1" cx="100" cy="100" r="100"></circle>
                <circle fill="#F5D789" cx="120" cy="100" r="100"></circle>
                <path d="M135,123.5 C135,141 125,155 105,155 C85,155 75,141 75,123.5 L75,76.5 C75,59 85,45 105,45 C125,45 135,59 135,76.5 L135,123.5 Z" fill="#F18C56"></path>
                <path d="M90,55 C90,52.25 92.25,50 95,50 L115,50 C117.75,50 120,52.25 120,55 L120,65 C120,67.75 117.75,70 115,70 L95,70 C92.25,70 90,67.75 90,65 L90,55 Z" fill="#F18C56"></path>
                <path d="M90,135 C90,132.25 92.25,130 95,130 L115,130 C117.75,130 120,132.25 120,135 L120,145 C120,147.75 117.75,150 115,150 L95,150 C92.25,150 90,147.75 90,145 L90,135 Z" fill="#F18C56"></path>
            </g>
            
            <!-- Piggy bank body -->
            <path d="M467.25,401.71875 C467.25,494.394531 392.675781,569.875 291.75,569.875 L291.75,569.875 C190.824219,569.875 116.25,494.394531 116.25,401.71875 L116.25,401.71875 C116.25,309.042969 190.824219,233.5625 291.75,233.5625 L291.75,233.5625 C392.675781,233.5625 467.25,309.042969 467.25,401.71875 L467.25,401.71875 Z" fill="#FF4A5A"></path>
            <path d="M467.25,401.71875 C467.25,494.394531 392.675781,569.875 291.75,569.875 L291.75,569.875 C190.824219,569.875 116.25,494.394531 116.25,401.71875 L116.25,401.71875 C116.25,309.042969 190.824219,233.5625 291.75,233.5625 L291.75,233.5625 C392.675781,233.5625 467.25,309.042969 467.25,401.71875 L467.25,401.71875 Z" fill="#FF4A5A"></path>
            
            <!-- Piggy bank shadow -->
            <path d="M291.75,233.5625 C291.75,233.5625 291.75,233.5625 291.75,233.5625 C392.675781,233.5625 467.25,309.042969 467.25,401.71875 C467.25,494.394531 392.675781,569.875 291.75,569.875 C291.75,569.875 291.75,569.875 291.75,569.875" fill="#FF4A5A"></path>
            <path d="M291.75,233.5625 C291.75,233.5625 291.75,233.5625 291.75,233.5625 C392.675781,233.5625 467.25,309.042969 467.25,401.71875 C467.25,494.394531 392.675781,569.875 291.75,569.875 C291.75,569.875 291.75,569.875 291.75,569.875" fill="#CA3349"></path>
            
            <!-- Piggy bank ears -->
            <path d="M102.15625,300 C92.753906,325.351562 69.324219,343.75 41.625,343.75 C13.925781,343.75 0,323.015625 0,297.664062 C0,272.3125 23.429688,251.578125 51.128906,251.578125 C78.828125,251.578125 111.558594,274.648438 102.15625,300 Z" fill="#FF4A5A"></path>
            <path d="M102.15625,300 C92.753906,325.351562 69.324219,343.75 41.625,343.75 C13.925781,343.75 0,323.015625 0,297.664062 C0,272.3125 23.429688,251.578125 51.128906,251.578125 C78.828125,251.578125 111.558594,274.648438 102.15625,300 Z" fill="#CA3349"></path>
            
            <!-- Piggy bank snout -->
            <path d="M190.097656,340 C190.097656,367.164062 165.472656,384.375 134.765625,384.375 C104.058594,384.375 76.125,363.9375 76.125,336.773438 C76.125,309.609375 100.75,288.75 131.457031,288.75 C162.164062,288.75 190.097656,312.835938 190.097656,340 Z" fill="#CA3349"></path>
            <circle fill="#9E202E" cx="134.765625" cy="338.28125" r="16.25"></circle>
            
            <!-- Piggy bank legs -->
            <rect fill="#CA3349" x="154.5" y="569.875" width="50" height="60" rx="20"></rect>
            <rect fill="#CA3349" x="379" y="569.875" width="50" height="60" rx="20"></rect>
            
            <!-- Piggy bank tail -->
            <path d="M467.25,401.71875 C467.25,401.71875 467.25,401.71875 467.25,401.71875 C551.527344,437.363281 583.75,479.996094 583.75,500 C583.75,520.003906 564.804688,579.734375 500,570 C435.195312,560.265625 462.050781,500 467.25,460 C472.449219,420 467.25,401.71875 467.25,401.71875 Z" fill="#CA3349"></path>
        </g>
    </g>
</svg>
